<svg id="visual" viewBox="0 0 900 450" width="900" height="450" xmlns="http://www.w3.org/2000/svg" xmlns:xlink="http://www.w3.org/1999/xlink" version="1.1"><rect x="0" y="0" width="900" height="450" fill="#ffffff"></rect><path d="M0 369L6.3 368.5C12.7 368 25.3 367 37.8 367.3C50.3 367.7 62.7 369.3 75.2 374.7C87.7 380 100.3 389 112.8 391C125.3 393 137.7 388 150.2 387.7C162.7 387.3 175.3 391.7 187.8 394.2C200.3 396.7 212.7 397.3 225.2 401.2C237.7 405 250.3 412 262.8 403.7C275.3 395.3 287.7 371.7 300.2 370.2C312.7 368.7 325.3 389.3 337.8 395.8C350.3 402.3 362.7 394.7 375.2 386.8C387.7 379 400.3 371 412.8 377.3C425.3 383.7 437.7 404.3 450 402C462.3 399.7 474.7 374.3 487.2 359.8C499.7 345.3 512.3 341.7 525 354.2C537.7 366.7 550.3 395.3 562.8 410C575.3 424.7 587.7 425.3 600.2 418.7C612.7 412 625.3 398 637.8 394C650.3 390 662.7 396 675.2 397.8C687.7 399.7 700.3 397.3 712.8 400.8C725.3 404.3 737.7 413.7 750.2 406.3C762.7 399 775.3 375 787.8 363.7C800.3 352.3 812.7 353.7 825.2 351.5C837.7 349.3 850.3 343.7 862.8 342C875.3 340.3 887.7 342.7 893.8 343.8L900 345L900 451L893.8 451C887.7 451 875.3 451 862.8 451C850.3 451 837.7 451 825.2 451C812.7 451 800.3 451 787.8 451C775.3 451 762.7 451 750.2 451C737.7 451 725.3 451 712.8 451C700.3 451 687.7 451 675.2 451C662.7 451 650.3 451 637.8 451C625.3 451 612.7 451 600.2 451C587.7 451 575.3 451 562.8 451C550.3 451 537.7 451 525 451C512.3 451 499.7 451 487.2 451C474.7 451 462.3 451 450 451C437.7 451 425.3 451 412.8 451C400.3 451 387.7 451 375.2 451C362.7 451 350.3 451 337.8 451C325.3 451 312.7 451 300.2 451C287.7 451 275.3 451 262.8 451C250.3 451 237.7 451 225.2 451C212.7 451 200.3 451 187.8 451C175.3 451 162.7 451 150.2 451C137.7 451 125.3 451 112.8 451C100.3 451 87.7 451 75.2 451C62.7 451 50.3 451 37.8 451C25.3 451 12.7 451 6.3 451L0 451Z" fill="#6600FF" stroke-linecap="round" stroke-linejoin="miter"></path></svg>